<?xml version="1.0" standalone="no"?>
<!DOCTYPE svg PUBLIC "-//W3C//DTD SVG 20010904//EN"
 "http://www.w3.org/TR/2001/REC-SVG-20010904/DTD/svg10.dtd">
<svg version="1.0" xmlns="http://www.w3.org/2000/svg"
 width="260.000000pt" height="260.000000pt" viewBox="0 0 260.000000 260.000000"
 preserveAspectRatio="xMidYMid meet">
<metadata>
Created by potrace 1.14, written by Peter Selinger 2001-2017
</metadata>
<g transform="translate(0.000000,260.000000) scale(0.100000,-0.100000)"
fill="#000000" stroke="none">
<path d="M2475 2584 c-38 -6 -90 -14 -115 -17 -25 -3 -74 -10 -110 -16 -36 -6
-81 -13 -100 -15 -19 -3 -51 -7 -70 -10 -40 -7 -365 -54 -425 -62 -22 -3 -80
-11 -130 -19 -89 -14 -161 -25 -200 -30 -11 -1 -46 -6 -77 -10 -50 -6 -58 -10
-59 -29 -1 -28 -1 -988 0 -1002 1 -8 199 -10 689 -7 378 2 692 5 697 7 7 2 10
209 9 602 -1 330 -2 604 -3 611 -1 13 -10 13 -106 -3z"/>
<path d="M990 2368 c-25 -4 -61 -10 -80 -12 -87 -11 -217 -28 -240 -32 -14 -2
-61 -8 -105 -14 -44 -6 -91 -13 -105 -15 -14 -2 -47 -7 -75 -10 -27 -4 -61 -9
-75 -11 -66 -10 -171 -23 -225 -29 -33 -4 -63 -10 -68 -14 -4 -4 -6 -203 -5
-442 l3 -434 300 2 c165 1 400 2 523 2 l222 1 0 508 c0 400 -3 509 -12 508 -7
0 -33 -3 -58 -8z"/>
<path d="M10 810 c0 -242 3 -440 8 -441 4 0 16 -2 27 -4 11 -2 40 -7 65 -10
25 -3 61 -8 80 -10 19 -3 49 -7 65 -9 115 -15 208 -28 260 -36 33 -5 78 -11
100 -14 53 -6 204 -26 235 -31 66 -11 167 -25 188 -25 l22 0 0 505 c0 391 -3
505 -13 506 -6 0 -243 2 -524 5 l-513 5 0 -441z"/>
<path d="M1189 1225 c-1 -5 -2 -236 -3 -512 l-1 -502 50 -7 c28 -4 52 -8 55
-9 3 -1 37 -5 75 -10 39 -5 72 -9 75 -10 3 0 32 -5 65 -9 32 -4 66 -9 75 -11
8 -1 38 -6 65 -9 28 -4 57 -9 65 -11 8 -2 40 -6 70 -10 30 -3 66 -7 80 -9 14
-2 46 -7 71 -10 44 -6 68 -10 134 -21 17 -3 50 -7 75 -10 25 -3 56 -7 70 -10
14 -2 45 -7 70 -10 25 -3 61 -8 80 -11 61 -8 104 -14 155 -20 28 -3 54 -7 60
-7 5 -1 9 227 10 606 l0 607 -25 1 c-14 0 -328 1 -697 2 -450 2 -673 -1 -674
-8z"/>
</g>
</svg>
